<svg width="100" height="42" viewBox="0 0 100 42" fill="none" xmlns="http://www.w3.org/2000/svg">
<path d="M100.004 21L88.5254 23.562L94.2945 33.4055L83.6218 28.2552L83.4376 39.6587L75.8314 30.8172L71.5449 41.5L67.2583 30.8172L59.6521 39.6587L59.4679 28.2552L48.7952 33.4055L54.5644 23.562L43.0859 21L54.5644 18.4381L48.7952 8.59453L59.4679 13.7448L59.6521 2.34127L67.2583 11.1829L71.5449 0.5L75.8314 11.1829L83.4376 2.34127L83.6218 13.7448L94.2945 8.59453L88.5254 18.4381L100.004 21Z" fill="#7E62F3"/>
<path d="M80.4744 27.4999V17.6719H77.2031V15.3679H86.5137V17.6719H83.2065V27.4999H80.4744Z" fill="white"/>
<path d="M67.6797 27.5001V15.5301C68.5245 15.3861 69.7108 15.2781 71.3823 15.2781C73.0719 15.2781 74.2762 15.6021 75.085 16.2501C75.8759 16.8621 76.3791 17.8701 76.3791 19.0581C76.3791 20.2461 76.0017 21.2721 75.2647 21.9381C74.3301 22.8021 72.9461 23.2161 71.3284 23.2161C70.9689 23.2161 70.6454 23.1981 70.3938 23.1441V27.5001H67.6797ZM70.3938 17.4561V21.0381C70.6274 21.0921 70.897 21.1101 71.3104 21.1101C72.7663 21.1101 73.665 20.3721 73.665 19.1481C73.665 18.0321 72.8922 17.3661 71.5082 17.3661C70.9689 17.3661 70.5915 17.4021 70.3938 17.4561Z" fill="white"/>
<path d="M65.5438 20.5519V26.9419C64.699 27.2299 63.0993 27.6259 61.4996 27.6259C59.2888 27.6259 57.6891 27.0679 56.5747 26.0059C55.4783 24.9439 54.8672 23.3599 54.8672 21.5779C54.8852 17.5459 57.8149 15.2419 61.7872 15.2419C63.3509 15.2419 64.5552 15.5479 65.1483 15.8179L64.5732 18.0319C63.9081 17.7259 63.0993 17.5099 61.7692 17.5099C59.4865 17.5099 57.743 18.7879 57.743 21.4339C57.743 23.9539 59.3248 25.4119 61.5715 25.4119C62.1826 25.4119 62.6859 25.3399 62.9016 25.2499V22.6939H61.0323V20.5519H65.5438Z" fill="white"/>
<path d="M36.3025 27.4999V17.6719H33.0312V15.3679H42.3418V17.6719H39.0346V27.4999H36.3025Z" fill="#0E0E0E"/>
<path d="M29.9349 24.3859H26.4659L25.6032 27.4999H22.7812L26.4659 15.3679H30.0607L33.8353 27.4999H30.8696L29.9349 24.3859ZM26.8614 22.3339H29.5395L28.7846 19.7599C28.5689 19.0399 28.3532 18.1399 28.1735 17.4199H28.1375C27.9578 18.1399 27.778 19.0579 27.5803 19.7599L26.8614 22.3339Z" fill="#0E0E0E"/>
<path d="M11.2656 15.3679H13.9977V20.0299H18.5092V15.3679H21.2412V27.4999H18.5092V22.4239H13.9977V27.4999H11.2656V15.3679Z" fill="#0E0E0E"/>
<path d="M9.04095 25.016L9.43638 27.176C8.95108 27.41 7.80074 27.698 6.34484 27.698C2.15689 27.698 0 25.07 0 21.614C0 17.474 2.94774 15.188 6.61445 15.188C8.0344 15.188 9.11285 15.458 9.59814 15.728L9.02297 17.888C8.48375 17.654 7.71087 17.438 6.7223 17.438C4.56541 17.438 2.87585 18.752 2.87585 21.452C2.87585 23.882 4.31377 25.412 6.74027 25.412C7.58505 25.412 8.48375 25.25 9.04095 25.016Z" fill="#0E0E0E"/>
</svg>
